<svg xmlns="http://www.w3.org/2000/svg" viewBox="0 0 135.896 14.766">
  <defs>
    <style>
      .cls-1 {
        fill: #fff;
      }
    </style>
  </defs>
  <path id="패스_654" data-name="패스 654" class="cls-1" d="M3.281-5.459v.332a6.269,6.269,0,0,0,.366,2.349,1.4,1.4,0,0,0,1.4.679,1.388,1.388,0,0,0,1.406-.742A3.821,3.821,0,0,0,6.66-4.326V-14.395H9.668v10.02a5.709,5.709,0,0,1-.635,2.91Q7.959.352,5.156.352T1.4-1.118A7.282,7.282,0,0,1,.439-5.127v-.332Zm21.61-6.387H17.274v3.057h6.992v2.5H17.274v3.7h7.969V0H14.334V-14.395H24.891Zm14.754-2.549v2.549H35.339V0H32.311V-11.846H27.985v-2.549Zm8.914,0h3.008V-2.588H58.7V0H48.56Zm13.817,0h3.057v8.848a5,5,0,0,0,.352,2.168,2.333,2.333,0,0,0,2.383,1.211,2.324,2.324,0,0,0,2.373-1.211,5,5,0,0,0,.352-2.168v-8.848h3.057v8.848a7.411,7.411,0,0,1-.713,3.574Q71.908.371,68.168.371T63.089-1.973a7.411,7.411,0,0,1-.713-3.574ZM80.715,0h-3.5l4.629-7.334-4.4-7.061h3.594l2.568,4.678,2.637-4.678h3.477l-4.4,6.943L89.992,0H86.34L83.605-4.9ZM93.36-14.395h3.057v8.848a5,5,0,0,0,.352,2.168,2.333,2.333,0,0,0,2.383,1.211,2.324,2.324,0,0,0,2.373-1.211,5,5,0,0,0,.352-2.168v-8.848h3.057v8.848a7.411,7.411,0,0,1-.713,3.574Q102.891.371,99.151.371T94.073-1.973a7.411,7.411,0,0,1-.713-3.574Zm19.051,2.5v3.867h3.408a3.8,3.8,0,0,0,1.523-.234,1.6,1.6,0,0,0,.9-1.621,1.789,1.789,0,0,0-.869-1.758,3.285,3.285,0,0,0-1.465-.254Zm4.121-2.5a6.578,6.578,0,0,1,2.329.371,3.639,3.639,0,0,1,1.382,1.006,4.457,4.457,0,0,1,.742,1.211,3.947,3.947,0,0,1,.273,1.514,4.313,4.313,0,0,1-.518,2.017,2.893,2.893,0,0,1-1.709,1.4,2.688,2.688,0,0,1,1.411,1.138,4.736,4.736,0,0,1,.415,2.251v.967a7.4,7.4,0,0,0,.078,1.338,1.2,1.2,0,0,0,.547.82V0h-3.311q-.137-.479-.2-.771a7.088,7.088,0,0,1-.127-1.24l-.02-1.338a2.614,2.614,0,0,0-.5-1.836,2.668,2.668,0,0,0-1.812-.459h-3.105V0h-2.939V-14.395Zm16.395,0h3.408L131.521-5.41V0h-3.008V-5.41l-4.98-8.984h3.545l2.988,6.27Z" transform="translate(-0.439 14.395)"/>
</svg>
